<svg transform="scale(1)" version="1.1" id="wBml5F6x24" xmlns="http://www.w3.org/2000/svg" xmlns:xlink="http://www.w3.org/1999/xlink" x="0px" y="0px" viewBox="0 0 500 500" xml:space="preserve" class="pbimage_pbimage__wrapper__image__0LEis false"><title>Empty Cart</title><style type="text/css"> .st0{fill:#000001;} .st1{fill:#469F78;} .st2{fill:#F3CB5C;} .st3{fill:#EA8383;} .st4{fill:#A04040;} .st5{fill:#F2EBEB;} .st6{fill:#87CCDB;} .st7{clip-path:url(#SVGID_2_-wBml5F6x24);} .st8{fill:#FFFFFF;}
 .st8{fill:#FFFFFF;}
 .st6{fill:#87CCDB;}
 .st5{fill:#F2EBEB;}
 .st4{fill:#A04040;}
 .st3{fill:#EA8383;}
 .st2{fill:#F3CB5C;}
 .st1{fill:#469F78;}
 .st0{fill:#000001;}</style><g id="character"><path class="st0" d="M117.7,406.8c0,0,1.8,14.8,2.7,15.8s14.7,12.5,17.8,12.5s6.2-3,4.7-5.7s-13.7-8.8-13.7-11.3v-11.3H117.7z" fill="#000001"></path><path class="st0" d="M99.4,406.8c0,0,0.3,18,0,18.8s-23.5,0.7-23.5,0s0-2.8,5.7-2.5s8.4-2,9-4s1.9-12.3,1.9-12.3L99.4,406.8z" fill="#000001"></path><path class="st1" d="M79.8,255.1c0,0-4.3,26.3-3.9,46.5c0.7,29.7,4,30.8,0.5,39.1s-4,9.4-1.8,15.3s-4.2,12.6-0.3,16.5
		s3.9,8.7,2.1,17s13.3,13.1,13.3,13.1v7h11.2V255.1H79.8z" fill="#469F78"></path><path class="st1" d="M133.5,391.6c0.5-7.3-3.3-25.7-5.5-30.1s4-14,0-18.4s-2.5-13.9-5.1-34.4c-3.3-26-14.4-22.6-14.4-22.6
		l-25.1-31.1l12.6,30.7l19.4,128.1l16.5-1l-2.5-10.8C131.8,399.1,133.2,395.4,133.5,391.6z" fill="#469F78"></path><path class="st2" d="M76.4,298.7c0.1,2.1,44.8-1.1,44.8-1.1s-13.8-68.7-26.9-74.1S74.6,246,76.4,298.7z" fill="#F3CB5C"></path><path class="st3" d="M91.4,208.6c0,0-4.1,15.9-4.1,16.2s10.1,5.4,10.1,5.4l1.5-14.5c0,0,9,3.9,7.8-6.9c0,0,4.9,0.1,4.6-0.3
		c-2.6-3.5-5.3-6.9-8.3-10.1c-2.9-2.8-16.3,1.4-16.4,3.3S87.4,209,91.4,208.6z" fill="#EA8383"></path><path class="st4" d="M93,207.4c0,0-2-6.1-3.4-5.7s-2.3,4.6,1.9,7l-0.9,3.4c-3.6-1.8-6.1-5.2-6.6-9.2c-1-6.9,3.9-10.7,15.6-10.5
		c0,0-7-5.8-1.2-8.8s12.4,8.4,11.2,11.2s-4.2,4.5-7.5,5.1s-5,0.5-5.1,1.4s1.2,5.2,2.8,6.2s7,1.3,7,1.3s5.2,5.6,6.4,9.5
		s-1.3,2.4-1.3,2.4s1.3,1.4-2,1.8S95.4,216.4,93,207.4z" fill="#A04040"></path><path class="st0" d="M100,210.9c0.4-0.3,0.9-0.4,1.4-0.2c0.2,0.1,0.5,0.2,0.7,0.3c0.2,0.2,0.4,0.4,0.5,0.7c-0.4,0.1-0.9,0.1-1.4,0
		C100.7,211.5,100.3,211.2,100,210.9z" fill="#000001"></path><path class="st4" d="M107.3,183.9c0.9,1.1,1.6,2.3,2.2,3.6c0.6,1.3,1,2.7,1.1,4.1c0.2,1.5-0.2,3-1.2,4.2c-1,1-2.4,1.6-3.9,1.6
		c1.3-0.3,2.4-1,3.3-2.1c0.7-1.1,1-2.4,0.8-3.6c-0.1-1.3-0.4-2.6-0.8-3.9C108.3,186.5,107.8,185.2,107.3,183.9z" fill="#A04040"></path><path class="st0" d="M98.6,200.6c-0.1-0.3,0-0.7,0.2-1c0.2-0.3,0.5-0.5,0.8-0.6c0.3-0.1,0.6-0.1,0.9,0c0.3,0.1,0.6,0.2,0.8,0.5
		c-0.5,0.2-1,0.4-1.5,0.5C99.5,200.1,99,200.3,98.6,200.6z" fill="#000001"></path><path class="st5" d="M99.5,203.3c0,0,3.1-1.8,4.8,1c0.1,0.2,0.1,0.5-0.1,0.6c0,0,0,0,0,0C103.1,205.3,100.6,206,99.5,203.3z" fill="#F2EBEB"></path><path class="st0" d="M99.3,203.3c0.4-0.3,0.9-0.5,1.4-0.7c0.5-0.1,1-0.2,1.6-0.1c0.5,0.1,1,0.3,1.4,0.7c0.4,0.4,0.6,0.8,0.7,1.4
		c-0.5-0.8-1.3-1.4-2.2-1.6C101.2,202.9,100.3,203,99.3,203.3z" fill="#000001"></path><path class="st0" d="M102.7,202.9c0,0-0.9,0.4-0.2,2.4c0,0,2.2-0.1,1.9-0.8C104.4,204.5,103.5,202.8,102.7,202.9z" fill="#000001"></path><path class="st3" d="M91.2,192.5c0.6-0.8-0.3-2.3-0.7-3.2s-10.8,2-12.1,2.5s-3.9,11.2-4.5,12c-1.5,1.2-3.1,2.2-4.9,3.1l0.1,0.1
		c-5.5,3.8-26.3,18.4-26.3,23.2c-0.1,14.6,38.4,14.6,38.4,14.6l5.7-20.3l-22.6,1.4l9.8-10.7c0,0,2-1.2,4.3-2.9s3.5-10.6,4.6-12.8
		s4.7-3,5.3-3.3s0.4,2.1,1.1,2.2s1.2-2.6,1.2-2.6C92.2,195.9,90.6,193.3,91.2,192.5z" fill="#EA8383"></path><path class="st0" d="M84.6,194.7c0.7-0.4,1.5-0.7,2.4-0.9c0.4-0.1,0.9-0.2,1.3-0.2c0.2,0,0.5,0,0.7,0l0.6,0.1
		c0.3,0.1,0.5,0.1,0.8,0.3c0.3,0.2,0.5,0.5,0.5,0.8c0.1,0.5,0,1-0.1,1.4c-0.2,0.9-0.8,1.6-1.5,2.1c0.4-0.7,0.7-1.5,0.8-2.3
		c0-0.4,0-0.7-0.1-1.1c0-0.1-0.1-0.2-0.1-0.2c-0.1-0.1-0.3-0.1-0.4-0.1l-0.6-0.1c-0.2,0-0.4,0-0.5,0c-0.4,0-0.8,0-1.2,0.1
		C86.2,194.6,85.4,194.7,84.6,194.7z" fill="#000001"></path><path class="st0" d="M84.6,192.7c0.7-0.4,1.5-0.8,2.4-1.1c0.8-0.3,1.7-0.5,2.6-0.6H90c0.1,0,0.3,0,0.4,0.1c0.1,0,0.2,0,0.2,0.1
		c0.1,0.1,0.2,0.1,0.3,0.2c0.1,0.1,0.1,0.2,0.2,0.3c0.2,0.4,0.4,0.8,0.5,1.3c0.1,0.4,0.2,0.9,0.3,1.4c0,0.2,0,0.5-0.1,0.7
		c-0.1,0.2-0.3,0.4-0.5,0.5c0.4-0.3,0.2-0.7,0.1-1.1c-0.1-0.4-0.3-0.8-0.5-1.1c-0.2-0.4-0.4-0.7-0.6-1.1l-0.2-0.2v0.1c0,0,0,0-0.1,0
		c-0.2,0-0.3,0-0.5,0c-0.8,0.1-1.7,0.2-2.5,0.3C86.4,192.5,85.5,192.7,84.6,192.7z" fill="#000001"></path><path class="st2" d="M78.5,245.4l-22.5-2L66.3,225c0,0,22-3.8,21.1-0.2C86.4,228.6,84.7,245.1,78.5,245.4z" fill="#F3CB5C"></path></g><g id="cart-2"><path class="st6" d="M108.2,431c0,0,139.8,34.2,157.8,34.2s148.8-35.2,160.5-47.8S457.2,284,457.2,284L83,288.5
		C83,288.5,98.3,414.7,108.2,431z"></path><g><defs><path id="SVGID_1_" d="M108.2,431c0,0,139.8,34.2,157.8,34.2s148.8-35.2,160.5-47.8S457.2,284,457.2,284L83,288.5
				C83,288.5,98.3,414.7,108.2,431z"></path></defs><clipPath id="SVGID_2_-wBml5F6x24"><use xlink:href="#SVGID_1_" style="overflow: visible;"></use></clipPath><g class="st7"><path class="st8" d="M523.3,513.2h-0.1L48.7,386.7c-0.3-0.1-0.4-0.4-0.4-0.6c0.1-0.3,0.4-0.4,0.6-0.4l474.5,126.5
				c0.3,0.1,0.4,0.3,0.4,0.6c0,0,0,0,0,0C523.8,513,523.5,513.2,523.3,513.2z"></path><path class="st8" d="M532.9,484.8h-0.1l-476-119c-0.3-0.1-0.4-0.3-0.4-0.6c0,0,0,0,0,0c0.1-0.3,0.3-0.4,0.6-0.4c0,0,0,0,0,0
				l476,119c0.3,0.1,0.4,0.3,0.4,0.6C533.3,484.6,533.1,484.7,532.9,484.8z"></path><path class="st8" d="M541.8,458.3h-0.1L64.6,342.7c-0.3-0.1-0.4-0.3-0.4-0.6c0.1-0.3,0.3-0.4,0.6-0.4L542,457.4
				c0.3,0.1,0.4,0.3,0.4,0.6C542.3,458.2,542.1,458.4,541.8,458.3z"></path><path class="st8" d="M550.3,433.2h-0.1L72,320c-0.3-0.1-0.4-0.3-0.4-0.6c0.1-0.3,0.3-0.4,0.6-0.4l478.2,113.2
				c0.3,0,0.5,0.3,0.4,0.6S550.6,433.3,550.3,433.2z"></path><path class="st8" d="M559.5,406.2h-0.1L78.6,301.1c-0.3-0.1-0.5-0.3-0.4-0.6c0.1-0.3,0.3-0.5,0.6-0.4l480.7,105.1
				c0.3,0,0.5,0.3,0.5,0.5S559.7,406.2,559.5,406.2L559.5,406.2z"></path><path class="st8" d="M567.3,383.2h-0.1L85.6,280.7c-0.3-0.1-0.4-0.3-0.4-0.6c0,0,0,0,0,0c0.1-0.3,0.3-0.4,0.6-0.4l481.6,102.6
				c0.3,0.1,0.4,0.3,0.4,0.6c0,0,0,0,0,0C567.8,383,567.6,383.2,567.3,383.2z"></path><path class="st8" d="M572.2,368.7L572.2,368.7L90.1,267.6c-0.3-0.1-0.4-0.3-0.4-0.6c0.1-0.3,0.3-0.4,0.6-0.4l482.1,101.1
				c0.3,0,0.5,0.3,0.5,0.5S572.5,368.7,572.2,368.7L572.2,368.7z"></path><path class="st8" d="M576.5,356.1h-0.1L95.6,251c-0.3-0.1-0.5-0.3-0.4-0.6s0.3-0.5,0.6-0.4l0,0l480.7,105.1
				c0.3,0.1,0.4,0.3,0.4,0.6c0,0,0,0,0,0C576.9,355.9,576.7,356.1,576.5,356.1z"></path><path class="st8" d="M139.9,508.5h-0.2c-0.3-0.1-0.4-0.4-0.3-0.6l115.1-340.7c0.1-0.3,0.4-0.4,0.6-0.3c0.3,0.1,0.4,0.4,0.3,0.6
				l-115,340.6C140.3,508.4,140.1,508.5,139.9,508.5z"></path><path class="st8" d="M62.8,489.4h-0.2c-0.3-0.1-0.4-0.4-0.3-0.6c0,0,0,0,0,0l85.1-261c0.1-0.3,0.4-0.4,0.6-0.3
				c0.3,0.1,0.4,0.4,0.3,0.6L63.2,489C63.2,489.2,63,489.4,62.8,489.4z"></path><path class="st8" d="M40.8,483.9c0,0-0.1,0-0.1,0c-0.3-0.1-0.4-0.3-0.4-0.6c0,0,0,0,0,0l75.7-263.2c0.1-0.3,0.3-0.4,0.6-0.3
				c0,0,0,0,0,0c0.3,0.1,0.4,0.4,0.3,0.6L41.3,483.6C41.3,483.8,41.1,483.9,40.8,483.9z"></path><path class="st8" d="M17.3,478.2h-0.1c-0.3-0.1-0.4-0.3-0.4-0.6c0,0,0,0,0,0l72.8-263.9c0.1-0.3,0.3-0.4,0.6-0.4
				c0.3,0.1,0.4,0.3,0.4,0.6c0,0,0,0,0,0L17.8,477.8C17.7,478,17.5,478.2,17.3,478.2z"></path><path class="st8" d="M2.1,474.5H2c-0.3-0.1-0.4-0.3-0.4-0.6c0,0,0,0,0,0l71.1-264.3c0.1-0.3,0.4-0.4,0.6-0.4
				c0.3,0.1,0.4,0.4,0.4,0.6L2.6,474.1C2.5,474.3,2.3,474.5,2.1,474.5z"></path><path class="st8" d="M-17,469.9h-0.1c-0.3-0.1-0.4-0.4-0.4-0.6L58.2,206c0.1-0.3,0.3-0.4,0.6-0.3c0,0,0,0,0,0
				c0.3,0.1,0.4,0.3,0.3,0.6l-75.7,263.2C-16.6,469.7-16.8,469.9-17,469.9z"></path><path class="st8" d="M232.5,548.6c-0.1,0-0.1,0-0.2,0c-0.3-0.1-0.4-0.4-0.3-0.6l157-425.6c0.1-0.3,0.4-0.4,0.6-0.3c0,0,0,0,0,0
				c0.3,0.1,0.4,0.4,0.3,0.6l-157,425.6C232.9,548.5,232.7,548.6,232.5,548.6z"></path><path class="st8" d="M208.3,541.9c-0.1,0-0.1,0-0.2,0c-0.3-0.1-0.4-0.4-0.3-0.6c0,0,0,0,0,0l148.3-426.9c0.1-0.3,0.4-0.4,0.7-0.3
				c0.3,0.1,0.4,0.4,0.3,0.7l0,0L208.8,541.5C208.7,541.7,208.6,541.9,208.3,541.9z"></path><path class="st8" d="M181.6,535.4c-0.1,0-0.1,0-0.2,0c-0.3-0.1-0.4-0.4-0.3-0.6c0,0,0,0,0,0L325.6,107c0.1-0.3,0.4-0.4,0.6-0.3
				c0.3,0.1,0.4,0.4,0.3,0.6L182.1,535.1C182,535.3,181.8,535.4,181.6,535.4z"></path><path class="st8" d="M155.4,529.3h-0.1c-0.3-0.1-0.4-0.4-0.3-0.6c0,0,0,0,0,0L296.6,100c0.1-0.3,0.4-0.4,0.6-0.3c0,0,0,0,0,0
				c0.3,0.1,0.4,0.4,0.3,0.6L155.9,528.9C155.8,529.1,155.6,529.3,155.4,529.3z"></path><path class="st8" d="M110,517.9c0,0-0.1,0-0.1,0c-0.3-0.1-0.4-0.3-0.3-0.6c0,0,0,0,0,0L238.8,85.9c0.1-0.3,0.3-0.4,0.6-0.3
				c0,0,0,0,0,0c0.3,0.1,0.4,0.4,0.3,0.6L110.4,517.6C110.4,517.8,110.2,517.9,110,517.9z"></path><path class="st8" d="M94.8,514.3c0,0-0.1,0-0.1,0c-0.3-0.1-0.4-0.4-0.3-0.6L222,81.8c0.1-0.3,0.4-0.4,0.6-0.3
				c0.3,0.1,0.4,0.4,0.3,0.6c0,0,0,0,0,0L95.3,513.9C95.2,514.1,95,514.3,94.8,514.3z"></path><path class="st8" d="M75.7,509.6h-0.1c-0.3-0.1-0.4-0.3-0.3-0.6c0,0,0,0,0,0L207.5,78.3c0.1-0.3,0.4-0.4,0.6-0.4
				c0.3,0.1,0.4,0.4,0.4,0.6L76.2,509.3C76.1,509.5,75.9,509.6,75.7,509.6z"></path><path class="st8" d="M509.4,333.9h-0.1L118.9,227.8c-0.3-0.1-0.4-0.4-0.4-0.6c0.1-0.3,0.4-0.4,0.6-0.4l390.3,106.1
				c0.3,0,0.5,0.3,0.4,0.6S509.6,333.9,509.4,333.9L509.4,333.9L509.4,333.9z"></path><path class="st8" d="M519,305.5h-0.1l-392-98.6c-0.3-0.1-0.4-0.3-0.4-0.6c0.1-0.3,0.3-0.4,0.6-0.4c0,0,0,0,0,0l392,98.6
				c0.3,0.1,0.4,0.3,0.4,0.6C519.4,305.3,519.2,305.5,519,305.5z"></path><path class="st8" d="M527.9,279h-0.1l-393.1-95.3c-0.3-0.1-0.4-0.3-0.4-0.6c0,0,0,0,0,0c0.1-0.3,0.3-0.4,0.6-0.4L528,278.1
				c0.3,0,0.5,0.3,0.4,0.6S528.2,279.1,527.9,279L527.9,279z"></path><path class="st8" d="M536.3,253.9h-0.1l-394.1-92.9c-0.3-0.1-0.4-0.3-0.4-0.6c0,0,0,0,0,0c0.1-0.3,0.3-0.4,0.6-0.4L536.5,253
				c0.3,0,0.5,0.3,0.4,0.6S536.6,254,536.3,253.9L536.3,253.9L536.3,253.9z"></path><path class="st8" d="M545.5,226.9h-0.1l-396.7-84.7c-0.3-0.1-0.4-0.3-0.4-0.6c0,0,0,0,0,0c0.1-0.3,0.3-0.4,0.6-0.4l396.7,84.7
				c0.3,0.1,0.4,0.3,0.4,0.6C545.9,226.7,545.7,226.9,545.5,226.9z"></path><path class="st8" d="M553.3,203.9L553.3,203.9l-397.7-82.2c-0.3,0-0.4-0.3-0.4-0.6c0,0,0,0,0,0c0.1-0.3,0.3-0.4,0.6-0.4
				c0,0,0,0,0,0l397.6,82.2c0.3,0.1,0.4,0.3,0.4,0.6C553.8,203.7,553.6,203.9,553.3,203.9z"></path><path class="st8" d="M558.2,189.4L558.2,189.4l-398.1-80.8c-0.3-0.1-0.4-0.3-0.4-0.6c0.1-0.3,0.3-0.4,0.6-0.4l398,80.8
				c0.3,0.1,0.4,0.3,0.4,0.6C558.7,189.2,558.5,189.4,558.2,189.4z"></path><path class="st8" d="M562.5,176.8L562.5,176.8L165.7,92.1c-0.3-0.1-0.5-0.3-0.4-0.6c0.1-0.3,0.3-0.5,0.6-0.4l396.7,84.7
				c0.3,0.1,0.4,0.3,0.4,0.6c0,0,0,0,0,0C562.9,176.7,562.7,176.8,562.5,176.8z"></path><path class="st8" d="M422.9,603.6h-0.2c-0.3-0.1-0.4-0.4-0.3-0.6c0,0,0,0,0,0l157-425.6c0.1-0.3,0.4-0.4,0.6-0.3c0,0,0,0,0,0
				c0.3,0.1,0.4,0.4,0.3,0.6l-157,425.6C423.3,603.5,423.1,603.6,422.9,603.6z"></path><path class="st8" d="M398.8,596.8c-0.1,0-0.1,0-0.2,0c-0.3-0.1-0.4-0.4-0.3-0.6l148.3-426.8c0.1-0.3,0.4-0.4,0.6-0.3c0,0,0,0,0,0
				c0.3,0.1,0.4,0.4,0.3,0.6L399.2,596.5C399.2,596.7,399,596.8,398.8,596.8z"></path><path class="st8" d="M372.1,590.3c-0.1,0-0.1,0-0.2,0c-0.3-0.1-0.4-0.4-0.3-0.6L516,161.9c0.1-0.3,0.4-0.4,0.6-0.3c0,0,0,0,0,0
				c0.3,0.1,0.4,0.4,0.3,0.6c0,0,0,0,0,0L372.5,590C372.5,590.2,372.3,590.3,372.1,590.3z"></path><path class="st8" d="M345.9,584.2c-0.1,0-0.1,0-0.2,0c-0.3-0.1-0.4-0.4-0.3-0.6L487,154.9c0.1-0.3,0.4-0.4,0.6-0.3c0,0,0,0,0,0
				c0.3,0.1,0.4,0.4,0.3,0.6L346.3,583.8C346.3,584,346.1,584.2,345.9,584.2z"></path><path class="st8" d="M324,578.7c0,0-0.1,0-0.1,0c-0.3-0.1-0.4-0.3-0.3-0.6c0,0,0,0,0,0l132.2-430.7c0.1-0.3,0.3-0.4,0.6-0.3
				c0,0,0,0,0,0c0.3,0.1,0.4,0.4,0.3,0.6L324.4,578.3C324.4,578.5,324.2,578.7,324,578.7z"></path><path class="st8" d="M300.4,572.9h-0.1c-0.3-0.1-0.4-0.4-0.3-0.6l129.3-431.5c0.1-0.3,0.4-0.4,0.6-0.3c0.3,0.1,0.4,0.4,0.3,0.6
				L300.9,572.5C300.8,572.7,300.6,572.9,300.4,572.9z"></path><path class="st8" d="M285.2,569.2h-0.1c-0.3-0.1-0.4-0.4-0.3-0.6l127.7-431.8c0.1-0.3,0.3-0.4,0.6-0.3c0,0,0,0,0,0
				c0.3,0.1,0.4,0.4,0.3,0.6L285.7,568.8C285.7,569.1,285.5,569.2,285.2,569.2z"></path><path class="st8" d="M266.2,564.6H266c-0.3-0.1-0.4-0.4-0.3-0.6L398,133.2c0.1-0.3,0.3-0.4,0.6-0.3c0,0,0,0,0,0
				c0.3,0.1,0.4,0.4,0.3,0.6L266.6,564.2C266.6,564.4,266.4,564.6,266.2,564.6z"></path></g></g><path class="st0" d="M83,288.5c0,0,199.3-27.1,212.8-27.1S458.1,275,457.2,284s-165,34.3-187.1,34.3S72.1,298.4,83,288.5z"></path><path class="st0" d="M270.1,327.3c0.4,11.5,0.6,22.9,0.8,34.4c0.1,11.5,0.2,22.9,0.2,34.4s-0.1,22.9-0.2,34.4s-0.4,22.9-0.8,34.4
		c-0.4-11.5-0.6-22.9-0.8-34.4c-0.2-11.5-0.2-22.9-0.2-34.4s0.1-22.9,0.2-34.4S269.7,338.7,270.1,327.3z"></path><path class="st5" d="M355.5,315.8c0,0,77.4-80.2,75.1-90.6S330,187.8,317.8,193.5s-78.9,74.4-78.9,74.4l-20.1,2.6
		c0,0,83.9-87.8,99-90.2s125.1,18.4,128.9,37.8s-58.3,98.6-74.5,114.9S347.8,326.7,355.5,315.8z"></path><path class="st0" d="M434.8,211.5c-0.7,6-2.2,11.9-4.6,17.4c-1.2,2.8-2.6,5.5-4.2,8c-0.8,1.3-1.7,2.5-2.6,3.7l-2.8,3.5
		c-3.8,4.7-7.6,9.2-11.6,13.7c-4,4.5-8,8.9-12.2,13.2c3.6-4.8,7.3-9.5,11-14.2l11.2-14l2.8-3.5c0.9-1.2,1.8-2.3,2.6-3.6
		c1.7-2.4,3.1-5,4.4-7.7c1.3-2.7,2.4-5.4,3.4-8.2C433.3,217.2,434.1,214.3,434.8,211.5z"></path><path class="st8" d="M364.9,318.2c-2.1,1.1-3.4,3.4-3.2,5.8c0.4,4,3.7,5.1,6.4,1.3S367.4,316,364.9,318.2z"></path><path class="st0" d="M354.8,316.8c-1.1,3.4-1.5,7-1.3,10.5c0.2,3.4,1.6,6.6,4.1,8.9c1.2,1.1,2.7,1.6,4.3,1.6
		c1.7-0.1,3.3-0.6,4.7-1.4c3.1-1.8,5.9-4,8.4-6.5c-1,1.5-2.1,3-3.4,4.3c-1.3,1.4-2.7,2.6-4.3,3.6c-1.6,1.1-3.5,1.8-5.4,2
		c-2.1,0.1-4.1-0.6-5.7-2c-1.5-1.3-2.6-3-3.3-4.8c-0.7-1.8-1-3.7-1-5.6C352.1,323.7,353,320.1,354.8,316.8z"></path><path class="st8" d="M296.9,264.5c0.2,4.1,0.1,8.2,0,12.3s-0.3,8.2-0.5,12.3s-0.6,8.1-1,12.2s-0.9,8.1-1.5,12.2
		c-0.2-4.1-0.1-8.2,0-12.3s0.3-8.2,0.5-12.3s0.6-8.1,1-12.2S296.2,268.5,296.9,264.5z"></path><path class="st3" d="M194.2,244.8c-1.8-1.5-3.6-3.1-5.2-4.9c-1.7-1.7-3.3-3.4-4.8-5.2s-3.1-3.6-4.5-5.5c-1.5-1.9-2.8-3.9-4.1-5.9
		c1.8,1.5,3.6,3.1,5.2,4.9c1.7,1.7,3.3,3.5,4.8,5.2s3.1,3.6,4.5,5.5C191.6,240.8,193,242.7,194.2,244.8z"></path><path class="st3" d="M229.3,230.2c-1.7-3.1-3.2-6.2-4.7-9.4s-2.8-6.4-4.1-9.6s-2.6-6.5-3.7-9.8s-2.3-6.6-3.2-10
		c1.7,3.1,3.2,6.2,4.7,9.4s2.8,6.4,4.1,9.6s2.6,6.5,3.7,9.8S228.3,226.8,229.3,230.2z"></path><path class="st3" d="M256.4,216.9c0.1-2.8,0.4-5.6,0.8-8.4s0.9-5.6,1.4-8.3s1.1-5.5,1.8-8.2s1.4-5.4,2.4-8.1
		c-0.1,2.8-0.4,5.6-0.8,8.4s-0.9,5.5-1.4,8.3s-1.1,5.5-1.8,8.2S257.4,214.3,256.4,216.9z"></path><path class="st1" d="M363.9,307c0,0-11.8-5.8-22.4,15.7s42.9,95.6,47.1,95.6s39.2-22.2,39.2-27.1s-46.4-68.5-46.4-68.5l-4.3,4.6
		c0,0,11.1,17.6,5.1,24.8s-26.2,13.9-32.8-9s6.1-27.2,6.1-27.2L363.9,307z"></path><path class="st8" d="M399.8,374.9c-7.3-7.4-14.2-1.3-14.2-1.3s-3.8,3.5,0.1,12.6s10.9,17,18.1,12.6S408.2,383.4,399.8,374.9z
		 M402.8,396.5c-12,1.6-15.7-19.5-15.7-19.5c-0.8-2.4,7-7.3,11.9,1.8C403.3,386.7,410.5,395.5,402.8,396.5L402.8,396.5z"></path><path class="st0" d="M400.2,369.7c-0.3-0.9-0.5-1.9-0.6-2.9c-0.1-1-0.1-1.9,0-2.9c0.1-1,0.2-1.9,0.4-2.8c0.2-1,0.5-1.9,1-2.8
		c0.3,0.9,0.5,1.9,0.6,2.9c0.1,1.9,0,3.8-0.4,5.7C401,367.8,400.6,368.8,400.2,369.7z"></path><path class="st0" d="M403.5,370.2c0.7-1.2,1.6-2.3,2.5-3.3c0.9-1,1.9-2,2.9-2.9c1-0.9,2.1-1.8,3.2-2.6c1.1-0.8,2.3-1.6,3.5-2.2
		c-0.7,1.2-1.6,2.3-2.5,3.3c-1.8,2-3.8,3.9-6,5.5C406,368.8,404.8,369.5,403.5,370.2z"></path><path class="st0" d="M407.2,372.7c0.5-0.5,1-0.9,1.6-1.2c0.5-0.3,1.1-0.5,1.7-0.6c0.6-0.1,1.2-0.2,1.8-0.2c0.7,0,1.3,0.1,1.9,0.4
		c-0.4,0.5-1,0.9-1.6,1.2c-0.5,0.3-1.1,0.5-1.7,0.6c-0.6,0.1-1.2,0.2-1.8,0.2C408.5,373,407.8,372.9,407.2,372.7z"></path></g><g id="hand"><path class="st3" d="M140.6,277.6c0,0,6.3,0.7,6.8,1.4s0.1,8-1.5,8s-2.3-6.8-2.3-6.8l-6.3,0.9C137.2,281.2,137.8,277.3,140.6,277.6
		z"></path><path class="st3" d="M137.2,276.9c0,0,6,2.1,6.5,2.8s1.1,11.2-0.6,11.2s-3.3-10-3.3-10l-6.2,0.7
		C133.6,281.6,134.4,276.5,137.2,276.9z"></path><path class="st3" d="M134,277.2c0,0,6,2.1,6.5,2.8s0.8,9.2-0.9,9.2s-3-7.9-3-7.9l-6.8,0.8C129.8,282.2,131.2,276.9,134,277.2z"></path><path class="st3" d="M132.5,279.8c0,0-9.6-6.6-8.4-3.5c0.8,2,4.4,6,4.4,6l5.5-0.7L132.5,279.8z"></path><path class="st0" d="M135.3,277.7c1.2,0,2.4,0.3,3.5,0.7c0.6,0.2,1.2,0.6,1.7,1c0.3,0.3,0.5,0.6,0.6,1l0.1,0.9
		c0.1,1.2,0.1,2.4,0,3.6c0,0.6-0.1,1.2-0.2,1.8c-0.1,0.6-0.3,1.2-0.6,1.7c0.1-0.6,0.2-1.2,0.1-1.7c0-0.6,0-1.2-0.1-1.8
		c-0.1-1.2-0.1-2.3-0.2-3.5l-0.1-0.9c0-0.2-0.1-0.4-0.3-0.5c-0.4-0.4-0.8-0.7-1.3-0.9C137.5,278.6,136.4,278.1,135.3,277.7z"></path><path class="st0" d="M140.1,278c1.1,0.1,2.2,0.4,3.2,0.9c0.3,0.1,0.5,0.3,0.8,0.5c0.3,0.2,0.5,0.5,0.6,0.8c0,0.2,0.1,0.3,0.1,0.5
		v0.4l0.1,0.8c0.1,1.1,0.1,2.2,0,3.3c0,1.1-0.2,2.2-0.6,3.2c0-1.1-0.2-2.1-0.2-3.2s-0.1-2.1-0.2-3.2v-0.8v-0.4c0-0.1,0-0.2,0-0.3
		c0-0.3-0.5-0.6-0.9-0.9C142,279,141,278.4,140.1,278z"></path><polygon class="st3" points="108.4,249 136.6,281.3 124.9,282.8 116.6,277.2 	"></polygon></g><g id="bubble"><circle class="st5" cx="189.7" cy="42.3" r="7.5"></circle><circle class="st5" cx="424.8" cy="84.2" r="10.8"></circle><circle class="st5" cx="320.6" cy="60.6" r="5.9"></circle><circle class="st5" cx="229.3" cy="121.9" r="7.5"></circle><circle class="st5" cx="76.5" cy="73.4" r="10.8"></circle></g></svg>